<svg width="164" height="44" viewBox="0 0 164 44" fill="none" xmlns="http://www.w3.org/2000/svg">
<path d="M57.3249 22.2248C57.3249 20.9125 56.9734 19.9048 56.2703 19.2017C55.5673 18.4753 54.5713 18.112 53.2824 18.112C52.0638 18.112 51.0326 18.3815 50.189 18.9205C49.3453 19.4361 48.7243 20.2797 48.3259 21.4515L46.041 20.0454C46.5097 18.733 47.3768 17.6785 48.6423 16.8817C49.9078 16.0615 51.4779 15.6514 53.3527 15.6514C54.6182 15.6514 55.7665 15.874 56.7976 16.3192C57.8288 16.7411 58.6373 17.3973 59.2231 18.2878C59.8324 19.1549 60.1371 20.2797 60.1371 21.6624V30.1693C60.1371 31.0129 60.5824 31.4347 61.4729 31.4347C61.9181 31.4347 62.3517 31.3762 62.7735 31.259L62.6329 33.4736C62.1642 33.7079 61.5549 33.8251 60.805 33.8251C59.9379 33.8251 59.188 33.6142 58.5552 33.1924C57.9459 32.7705 57.5475 32.1261 57.3601 31.259C56.7508 32.1729 55.9188 32.8526 54.8642 33.2978C53.8097 33.7196 52.7668 33.9306 51.7357 33.9306C50.7046 33.9306 49.7437 33.7548 48.8532 33.4033C47.9627 33.0518 47.2479 32.5245 46.7089 31.8214C46.1933 31.0949 45.9356 30.2044 45.9356 29.1498C45.9356 27.8375 46.3691 26.7595 47.2362 25.9158C48.1267 25.0487 49.357 24.4629 50.9272 24.1582L57.3249 22.8927V22.2248ZM48.818 29.0092C48.818 29.7357 49.0993 30.3333 49.6617 30.802C50.2476 31.2473 51.0678 31.4699 52.1224 31.4699C53.0363 31.4699 53.88 31.3176 54.6533 31.0129C55.4501 30.6848 56.0946 30.2044 56.5867 29.5717C57.0788 28.9155 57.3249 28.0836 57.3249 27.0759V25.2128L52.2278 26.2674C51.0795 26.5017 50.2241 26.8298 49.6617 27.2516C49.0993 27.6734 48.818 28.2593 48.818 29.0092ZM76.4269 31.3293C78.0908 31.3293 79.3914 31.716 80.3288 32.4893C81.2662 33.2392 81.7349 34.2469 81.7349 35.5124C81.7349 36.6607 81.3482 37.6567 80.5749 38.5004C79.825 39.344 78.8055 39.9885 77.5166 40.4337C76.2511 40.9024 74.8216 41.1368 73.228 41.1368C70.4627 41.1368 68.3887 40.6681 67.0061 39.7307C65.6469 38.7933 64.9672 37.6684 64.9672 36.3561C64.9672 35.5593 65.1899 34.8328 65.6351 34.1766C66.0804 33.5205 66.8186 33.0518 67.8497 32.7705C67.2873 32.5128 66.8303 32.1612 66.4788 31.716C66.1273 31.2473 65.9515 30.6262 65.9515 29.8529C65.9515 29.1264 66.1624 28.4702 66.5842 27.8844C67.0061 27.2751 67.6388 26.8064 68.4825 26.4783C67.5919 25.9627 66.9123 25.2831 66.4436 24.4394C65.9749 23.5958 65.7406 22.6467 65.7406 21.5921C65.7406 20.4204 66.0452 19.3892 66.6546 18.4987C67.2873 17.6082 68.1427 16.9168 69.2207 16.4247C70.2987 15.9091 71.5407 15.6514 72.9468 15.6514C74.4232 15.6514 75.7473 15.9443 76.919 16.5302C77.0831 15.3584 77.5986 14.4445 78.4657 13.7883C79.3563 13.1087 80.3991 12.7689 81.5943 12.7689H81.7701L82.4028 15.2647H82.1567C81.0787 15.2647 80.2351 15.4639 79.6258 15.8623C79.0165 16.2607 78.6766 16.8817 78.6063 17.7253C79.6375 18.8033 80.153 20.0923 80.153 21.5921C80.153 22.7404 79.8484 23.7715 79.2391 24.6855C78.6298 25.576 77.7744 26.2791 76.673 26.7946C75.595 27.2868 74.3529 27.5328 72.9468 27.5328C72.0797 27.5328 71.2712 27.4508 70.5213 27.2868C69.8183 27.4977 69.3144 27.7906 69.0098 28.1656C68.7051 28.5405 68.5528 28.9507 68.5528 29.3959C68.5528 30.6848 69.4667 31.3293 71.2947 31.3293H76.4269ZM72.9468 17.9363C71.7282 17.9363 70.7088 18.2761 69.8886 18.9557C69.0683 19.6118 68.6582 20.4907 68.6582 21.5921C68.6582 22.6701 69.0683 23.5489 69.8886 24.2285C70.7088 24.9081 71.7282 25.2479 72.9468 25.2479C74.1654 25.2479 75.1848 24.9081 76.0051 24.2285C76.8253 23.5489 77.2354 22.6701 77.2354 21.5921C77.2354 20.4907 76.8253 19.6118 76.0051 18.9557C75.1848 18.2761 74.1654 17.9363 72.9468 17.9363ZM73.1929 38.7816C75.2317 38.7816 76.7316 38.4769 77.6924 37.8676C78.6532 37.2818 79.1336 36.6021 79.1336 35.8288C79.1336 35.196 78.8758 34.6922 78.3603 34.3172C77.8681 33.9423 76.9659 33.7548 75.6535 33.7548H70.2401C69.4902 33.7548 68.8574 33.9423 68.3419 34.3172C67.8263 34.7156 67.5685 35.2546 67.5685 35.9342C67.5685 36.8013 68.0606 37.4927 69.0449 38.0082C70.0526 38.5238 71.4353 38.7816 73.1929 38.7816ZM85.6799 33.579V16.0029H87.9648L88.3515 18.8854C89.3358 16.7294 91.2106 15.6514 93.9759 15.6514C94.2805 15.6514 94.6086 15.6748 94.9601 15.7217C95.3351 15.7685 95.6515 15.8623 95.9093 16.0029L95.4171 18.569C95.1593 18.4753 94.8781 18.405 94.5735 18.3581C94.2688 18.3112 93.8353 18.2878 93.2728 18.2878C92.5463 18.2878 91.8081 18.4987 91.0582 18.9205C90.3317 19.3423 89.7224 19.9868 89.2303 20.8539C88.7382 21.6976 88.4921 22.7756 88.4921 24.0879V33.579H85.6799ZM106.756 15.6514C108.42 15.6514 109.885 16.0146 111.151 16.7411C112.439 17.4676 113.447 18.5221 114.174 19.9048C114.9 21.264 115.263 22.8927 115.263 24.791C115.263 26.6892 114.9 28.3296 114.174 29.7123C113.447 31.0715 112.439 32.1144 111.151 32.8408C109.885 33.5673 108.42 33.9306 106.756 33.9306C105.116 33.9306 103.651 33.5673 102.362 32.8408C101.074 32.1144 100.066 31.0715 99.3393 29.7123C98.6129 28.3296 98.2496 26.6892 98.2496 24.791C98.2496 22.8927 98.6129 21.264 99.3393 19.9048C100.066 18.5221 101.074 17.4676 102.362 16.7411C103.651 16.0146 105.116 15.6514 106.756 15.6514ZM106.756 18.0769C104.975 18.0769 103.581 18.6745 102.573 19.8696C101.566 21.0648 101.062 22.7053 101.062 24.791C101.062 26.8767 101.566 28.5171 102.573 29.7123C103.581 30.9075 104.975 31.5051 106.756 31.5051C108.538 31.5051 109.932 30.9075 110.94 29.7123C111.947 28.5171 112.451 26.8767 112.451 24.791C112.451 22.7053 111.947 21.0648 110.94 19.8696C109.932 18.6745 108.538 18.0769 106.756 18.0769ZM130.822 22.2248C130.822 20.9125 130.471 19.9048 129.768 19.2017C129.064 18.4753 128.068 18.112 126.78 18.112C125.561 18.112 124.53 18.3815 123.686 18.9205C122.843 19.4361 122.221 20.2797 121.823 21.4515L119.538 20.0454C120.007 18.733 120.874 17.6785 122.139 16.8817C123.405 16.0615 124.975 15.6514 126.85 15.6514C128.115 15.6514 129.264 15.874 130.295 16.3192C131.326 16.7411 132.134 17.3973 132.72 18.2878C133.33 19.1549 133.634 20.2797 133.634 21.6624V30.1693C133.634 31.0129 134.08 31.4347 134.97 31.4347C135.415 31.4347 135.849 31.3762 136.271 31.259L136.13 33.4736C135.661 33.7079 135.052 33.8251 134.302 33.8251C133.435 33.8251 132.685 33.6142 132.052 33.1924C131.443 32.7705 131.045 32.1261 130.857 31.259C130.248 32.1729 129.416 32.8526 128.361 33.2978C127.307 33.7196 126.264 33.9306 125.233 33.9306C124.202 33.9306 123.241 33.7548 122.35 33.4033C121.46 33.0518 120.745 32.5245 120.206 31.8214C119.691 31.0949 119.433 30.2044 119.433 29.1498C119.433 27.8375 119.866 26.7595 120.733 25.9158C121.624 25.0487 122.854 24.4629 124.424 24.1582L130.822 22.8927V22.2248ZM122.315 29.0092C122.315 29.7357 122.596 30.3333 123.159 30.802C123.745 31.2473 124.565 31.4699 125.62 31.4699C126.534 31.4699 127.377 31.3176 128.151 31.0129C128.947 30.6848 129.592 30.2044 130.084 29.5717C130.576 28.9155 130.822 28.0836 130.822 27.0759V25.2128L125.725 26.2674C124.577 26.5017 123.721 26.8298 123.159 27.2516C122.596 27.6734 122.315 28.2593 122.315 29.0092ZM140.468 33.579V16.0029H142.929L143.105 18.7448C143.714 17.6433 144.546 16.8583 145.6 16.3896C146.655 15.8974 147.792 15.6514 149.01 15.6514C150.276 15.6514 151.424 15.8974 152.455 16.3896C153.486 16.8583 154.306 17.5847 154.916 18.569C155.548 19.5533 155.865 20.807 155.865 22.3303V33.579H153.053V23.3146C153.053 21.3695 152.631 20.022 151.787 19.272C150.967 18.4987 149.948 18.112 148.729 18.112C147.885 18.112 147.042 18.3112 146.198 18.7096C145.354 19.108 144.651 19.7525 144.089 20.643C143.55 21.5335 143.28 22.7287 143.28 24.2285V33.579H140.468Z" fill="#358F80"/>
<path d="M20.3852 22.196C15.7986 18.6285 4.77778 21.3466 0 22.196C0 26.1244 1.59259 34.873 7.96297 38.4404C14.3334 42.0078 25.9062 39.9269 30.8963 38.4404C29.1976 35.1491 24.9719 25.7634 20.3852 22.196Z" fill="#358F80"/>
<path d="M27.5289 19.1683C24.6354 14.1293 13.4063 12.4701 8.66286 11.4463C7.17476 15.0819 5.33463 23.7819 9.87891 29.4966C14.4232 35.2113 25.9219 37.6692 31.1032 38.1839C30.7778 34.4943 30.4224 24.2074 27.5289 19.1683Z" fill="#99E2B4"/>
<path d="M34.9645 18.9197C34.1208 13.1706 24.2828 7.50855 20.2453 4.81639C17.5275 7.65289 12.6248 15.0717 14.7564 22.0548C16.8881 29.038 26.684 35.5419 31.3155 37.921C32.366 34.3692 35.8082 24.6688 34.9645 18.9197Z" fill="#469D89"/>
</svg>
