<svg width="165" height="44" viewBox="0 0 165 44" fill="none" xmlns="http://www.w3.org/2000/svg">
<path d="M21.1837 22.6598C16.4533 18.9806 5.08736 21.7838 0.159912 22.6598C0.159912 26.7113 1.80239 35.7339 8.37232 39.4131C14.9422 43.0923 26.8776 40.9461 32.024 39.4131C30.2721 36.0186 25.914 26.339 21.1837 22.6598Z" fill="#358F80"/>
<path d="M28.5509 19.5378C25.5667 14.3409 13.9859 12.6297 9.09387 11.5739C7.55916 15.3234 5.66139 24.2959 10.348 30.1895C15.0346 36.0832 26.8935 38.6182 32.2371 39.1489C31.9015 35.3438 31.535 24.7347 28.5509 19.5378Z" fill="#99E2B4"/>
<path d="M36.2194 19.2811C35.3492 13.3519 25.203 7.51255 21.0391 4.73606C18.2362 7.66142 13.1799 15.3126 15.3783 22.5145C17.5768 29.7163 27.6795 36.424 32.4561 38.8777C33.5395 35.2146 37.0895 25.2103 36.2194 19.2811Z" fill="#469D89"/>
<path d="M59.2826 23.2135C59.2826 21.86 58.9201 20.8208 58.195 20.0957C57.47 19.3464 56.4428 18.9718 55.1135 18.9718C53.8567 18.9718 52.7933 19.2498 51.9232 19.8057C51.0531 20.3374 50.4126 21.2075 50.0018 22.4159L47.6453 20.9658C48.1287 19.6123 49.0229 18.5247 50.328 17.703C51.6332 16.857 53.2525 16.4341 55.186 16.4341C56.4911 16.4341 57.6754 16.6637 58.7388 17.1229C59.8023 17.5579 60.6361 18.2347 61.2403 19.1531C61.8687 20.0473 62.1829 21.2075 62.1829 22.6334V31.4068C62.1829 32.2768 62.6421 32.7119 63.5606 32.7119C64.0198 32.7119 64.4669 32.6515 64.9019 32.5306L64.7569 34.8146C64.2735 35.0563 63.6451 35.1771 62.8717 35.1771C61.9775 35.1771 61.2041 34.9596 60.5515 34.5246C59.9231 34.0895 59.5123 33.4249 59.3189 32.5306C58.6905 33.4732 57.8325 34.1741 56.7449 34.6333C55.6573 35.0684 54.5818 35.2859 53.5183 35.2859C52.4549 35.2859 51.464 35.1046 50.5456 34.7421C49.6271 34.3795 48.89 33.8357 48.3341 33.1107C47.8024 32.3614 47.5365 31.443 47.5365 30.3554C47.5365 29.0019 47.9837 27.8902 48.8779 27.0201C49.7963 26.1258 51.0652 25.5216 52.6845 25.2074L59.2826 23.9023V23.2135ZM50.5093 30.2104C50.5093 30.9596 50.7993 31.5759 51.3794 32.0593C51.9836 32.5185 52.8295 32.7481 53.9171 32.7481C54.8597 32.7481 55.7298 32.591 56.5274 32.2768C57.3491 31.9385 58.0138 31.443 58.5213 30.7904C59.0289 30.1137 59.2826 29.2557 59.2826 28.2165V26.295L54.0259 27.3826C52.8416 27.6243 51.9595 27.9627 51.3794 28.3977C50.7993 28.8328 50.5093 29.437 50.5093 30.2104ZM78.983 32.6031C80.699 32.6031 82.0404 33.0019 83.0071 33.7995C83.9739 34.5729 84.4573 35.6122 84.4573 36.9173C84.4573 38.1016 84.0585 39.1287 83.2609 39.9988C82.4875 40.8689 81.4361 41.5335 80.1068 41.9928C78.8017 42.4761 77.3274 42.7178 75.6839 42.7178C72.832 42.7178 70.693 42.2344 69.2671 41.2677C67.8653 40.3009 67.1644 39.1408 67.1644 37.7874C67.1644 36.9656 67.394 36.2164 67.8532 35.5396C68.3124 34.8629 69.0737 34.3795 70.1372 34.0895C69.5571 33.8237 69.0858 33.4611 68.7233 33.0019C68.3607 32.5185 68.1795 31.8781 68.1795 31.0805C68.1795 30.3312 68.397 29.6545 68.832 29.0503C69.2671 28.4219 69.9196 27.9385 70.7897 27.6001C69.8713 27.0684 69.1704 26.3675 68.687 25.4974C68.2036 24.6274 67.9619 23.6485 67.9619 22.5609C67.9619 21.3525 68.2761 20.289 68.9045 19.3706C69.5571 18.4522 70.4393 17.7392 71.551 17.2317C72.6628 16.6999 73.9438 16.4341 75.3939 16.4341C76.9165 16.4341 78.2821 16.7362 79.4905 17.3404C79.6597 16.132 80.1914 15.1894 81.0857 14.5127C82.0041 13.8118 83.0796 13.4613 84.3122 13.4613H84.4935L85.1461 16.0353H84.8923C83.7805 16.0353 82.9104 16.2407 82.2821 16.6516C81.6537 17.0625 81.3032 17.703 81.2307 18.573C82.2941 19.6848 82.8259 21.0141 82.8259 22.5609C82.8259 23.7452 82.5117 24.8086 81.8833 25.7512C81.2549 26.6696 80.3727 27.3947 79.2368 27.9264C78.125 28.434 76.844 28.6877 75.3939 28.6877C74.4996 28.6877 73.6658 28.6032 72.8924 28.434C72.1673 28.6515 71.6477 28.9536 71.3335 29.3403C71.0193 29.727 70.8622 30.15 70.8622 30.6092C70.8622 31.9385 71.8048 32.6031 73.69 32.6031H78.983ZM75.3939 18.7906C74.1371 18.7906 73.0858 19.141 72.2399 19.8419C71.3939 20.5186 70.971 21.425 70.971 22.5609C70.971 23.6727 71.3939 24.579 72.2399 25.2799C73.0858 25.9808 74.1371 26.3313 75.3939 26.3313C76.6507 26.3313 77.702 25.9808 78.5479 25.2799C79.3939 24.579 79.8168 23.6727 79.8168 22.5609C79.8168 21.425 79.3939 20.5186 78.5479 19.8419C77.702 19.141 76.6507 18.7906 75.3939 18.7906ZM75.6477 40.2888C77.7504 40.2888 79.2972 39.9747 80.2881 39.3463C81.279 38.742 81.7745 38.0411 81.7745 37.2436C81.7745 36.591 81.5086 36.0714 80.9769 35.6847C80.4694 35.298 79.5389 35.1046 78.1854 35.1046H72.6024C71.829 35.1046 71.1764 35.298 70.6447 35.6847C70.113 36.0955 69.8471 36.6514 69.8471 37.3523C69.8471 38.2466 70.3547 38.9596 71.3698 39.4913C72.409 40.023 73.835 40.2888 75.6477 40.2888ZM88.5259 34.9233V16.7966H90.8823L91.2811 19.7694C92.2962 17.5459 94.2297 16.4341 97.0817 16.4341C97.3959 16.4341 97.7342 16.4583 98.0968 16.5066C98.4835 16.5549 98.8097 16.6516 99.0756 16.7966L98.5681 19.4431C98.3022 19.3464 98.0122 19.2739 97.698 19.2256C97.3838 19.1773 96.9367 19.1531 96.3566 19.1531C95.6074 19.1531 94.846 19.3706 94.0726 19.8057C93.3234 20.2407 92.695 20.9053 92.1875 21.7996C91.6799 22.6697 91.4261 23.7815 91.4261 25.1349V34.9233H88.5259ZM110.263 16.4341C111.979 16.4341 113.489 16.8087 114.794 17.5579C116.124 18.3072 117.163 19.3948 117.912 20.8208C118.661 22.2226 119.036 23.9023 119.036 25.86C119.036 27.8177 118.661 29.5095 117.912 30.9355C117.163 32.3373 116.124 33.4128 114.794 34.162C113.489 34.9113 111.979 35.2859 110.263 35.2859C108.571 35.2859 107.06 34.9113 105.731 34.162C104.402 33.4128 103.362 32.3373 102.613 30.9355C101.864 29.5095 101.489 27.8177 101.489 25.86C101.489 23.9023 101.864 22.2226 102.613 20.8208C103.362 19.3948 104.402 18.3072 105.731 17.5579C107.06 16.8087 108.571 16.4341 110.263 16.4341ZM110.263 18.9356C108.426 18.9356 106.988 19.5519 105.948 20.7845C104.909 22.0171 104.39 23.7089 104.39 25.86C104.39 28.011 104.909 29.7028 105.948 30.9355C106.988 32.1681 108.426 32.7844 110.263 32.7844C112.099 32.7844 113.538 32.1681 114.577 30.9355C115.616 29.7028 116.136 28.011 116.136 25.86C116.136 23.7089 115.616 22.0171 114.577 20.7845C113.538 19.5519 112.099 18.9356 110.263 18.9356ZM135.082 23.2135C135.082 21.86 134.72 20.8208 133.994 20.0957C133.269 19.3464 132.242 18.9718 130.913 18.9718C129.656 18.9718 128.593 19.2498 127.723 19.8057C126.853 20.3374 126.212 21.2075 125.801 22.4159L123.445 20.9658C123.928 19.6123 124.822 18.5247 126.127 17.703C127.433 16.857 129.052 16.4341 130.985 16.4341C132.291 16.4341 133.475 16.6637 134.538 17.1229C135.602 17.5579 136.436 18.2347 137.04 19.1531C137.668 20.0473 137.982 21.2075 137.982 22.6334V31.4068C137.982 32.2768 138.442 32.7119 139.36 32.7119C139.819 32.7119 140.266 32.6515 140.701 32.5306L140.556 34.8146C140.073 35.0563 139.445 35.1771 138.671 35.1771C137.777 35.1771 137.003 34.9596 136.351 34.5246C135.723 34.0895 135.312 33.4249 135.118 32.5306C134.49 33.4732 133.632 34.1741 132.544 34.6333C131.457 35.0684 130.381 35.2859 129.318 35.2859C128.254 35.2859 127.263 35.1046 126.345 34.7421C125.427 34.3795 124.689 33.8357 124.134 33.1107C123.602 32.3614 123.336 31.443 123.336 30.3554C123.336 29.0019 123.783 27.8902 124.677 27.0201C125.596 26.1258 126.865 25.5216 128.484 25.2074L135.082 23.9023V23.2135ZM126.309 30.2104C126.309 30.9596 126.599 31.5759 127.179 32.0593C127.783 32.5185 128.629 32.7481 129.717 32.7481C130.659 32.7481 131.529 32.591 132.327 32.2768C133.149 31.9385 133.813 31.443 134.321 30.7904C134.828 30.1137 135.082 29.2557 135.082 28.2165V26.295L129.825 27.3826C128.641 27.6243 127.759 27.9627 127.179 28.3977C126.599 28.8328 126.309 29.437 126.309 30.2104ZM145.03 34.9233V16.7966H147.568L147.749 19.6244C148.378 18.4884 149.236 17.6788 150.323 17.1954C151.411 16.6879 152.583 16.4341 153.84 16.4341C155.145 16.4341 156.329 16.6879 157.393 17.1954C158.456 17.6788 159.302 18.428 159.93 19.4431C160.583 20.4582 160.909 21.7513 160.909 23.3222V34.9233H158.009V24.3373C158.009 22.3313 157.574 20.9416 156.704 20.1682C155.858 19.3706 154.807 18.9718 153.55 18.9718C152.68 18.9718 151.81 19.1773 150.94 19.5881C150.069 19.999 149.344 20.6637 148.764 21.5821C148.208 22.5005 147.931 23.7331 147.931 25.2799V34.9233H145.03Z" fill="#99DFB4"/>
</svg>
